<?xml version="1.0" encoding="utf-8" ?>
<svg xmlns="http://www.w3.org/2000/svg" xmlns:ev="http://www.w3.org/2001/xml-events" xmlns:xlink="http://www.w3.org/1999/xlink" baseProfile="full" height="480" version="1.1" viewBox="0.0 0.0 72.0 72.0" width="480">
  <defs/>
  <path d="M 49.537532806396484,58.041534423828125 L 49.537532806396484,58.041534423828125 C 47.55143737792969,58.03533935546875 45.36994171142578,57.99911117553711 43.246620178222656,57.690303802490234 C 42.869171905637764,57.63540856050911 42.49356191989153,57.57190001047751 42.12121455153912,57.49841568497121" fill="none" stroke="#000000" stroke-width="0.7"/>
  <path d="M 42.12121455153912,57.49841568497121 C 40.39893533797658,57.15851660927157 38.746459542577995,56.6051866764048 37.30474090576172,55.70359420776367 C 36.70738321437532,55.33002964602697 36.15673951342009,54.853401369914124 35.648035545125246,54.308304663953535" fill="none" stroke="#000000" stroke-width="0.7"/>
  <path d="M 35.648035545125246,54.308304663953535 C 35.05621872226911,53.67414920070391 34.52116551092969,52.94732468339738 34.03535842895508,52.18230438232422 C 33.140391532371574,50.77295363972933 32.412557566904475,49.23397294693228 31.804851801892685,47.90593796742974" fill="none" stroke="#000000" stroke-width="0.7"/>
  <path d="M 31.804851801892685,47.90593796742974 C 31.79913558081304,47.89344616303787 31.793429988339025,47.88097302252998 31.787734985351562,47.8685188293457 L 31.787734985351562,47.8685188293457 C 30.604106903076172,49.38780212402344 29.558555603027344,50.97441864013672 28.39341926574707,52.45201110839844 C 28.0511173525118,52.88610928271613 27.698493924840225,53.31079747306043 27.329015566964145,53.72160367081765" fill="none" stroke="#000000" stroke-width="0.7"/>
  <path d="M 27.329015566964145,53.72160367081765 C 26.44085574278268,54.70910822310075 25.45530214416465,55.616397690637 24.281604766845703,56.38135528564453 C 23.309318297534844,57.0150435530505 22.26107251973659,57.45487569175892 21.17245061600723,57.72847195078488" fill="none" stroke="#000000" stroke-width="0.7"/>
  <path d="M 21.17245061600723,57.72847195078488 C 19.961826535824983,58.032730222908484 18.701269287053528,58.13140452642839 17.439716339111328,58.06248092651367 C 16.221311653762864,57.9959165727787 15.001978213783673,57.77302254288344 13.82580252911254,57.428021626621884" fill="none" stroke="#000000" stroke-width="0.7"/>
  <path d="M 13.82580252911254,57.428021626621884 C 12.689051340927286,57.09458487342546 11.59261316849186,56.647089898291625 10.576288223266602,56.116432189941406 C 9.879851341247559,55.75279998779297 8.312292098999023,55.00821304321289 7.653311729431152,54.33262252807617 C 7.556341432201301,54.233207970074396 7.463953759909467,54.125310933287615 7.3757802805079775,54.01027740796442" fill="none" stroke="#000000" stroke-width="0.7"/>
  <path d="M 7.3757802805079775,54.01027740796442 C 6.509180025088943,52.87968708643578 6.049656312887773,51.05973651023778 5.647425174713135,49.82828903198242 C 5.3466352577733485,48.90740703002062 5.098269839633632,47.970576385850805 4.898296913591901,47.02128308569377" fill="none" stroke="#000000" stroke-width="0.7"/>
  <path d="M 4.898296913591901,47.02128308569377 C 4.672631407472126,45.95002430443583 4.508592180402539,44.862894732435805 4.400384902954102,43.7649040222168 C 4.26635167365202,42.40485213675919 4.217981336040614,41.02813429506009 4.244261627936303,39.64427134523996" fill="none" stroke="#000000" stroke-width="0.7"/>
  <path d="M 4.244261627936303,39.64427134523996 C 4.257998824441955,38.92090048794407 4.292133163284404,38.19557733917631 4.345091819763184,37.469661712646484 C 4.472098161659339,35.728750109819174 4.707372181960154,33.98442829779404 5.029218580055947,32.25544945368439" fill="none" stroke="#000000" stroke-width="0.7"/>
  <path d="M 5.029218580055947,32.25544945368439 C 5.098312605581266,31.88427205634688 5.171396540485999,31.51380177891474 5.248255729675293,31.144224166870117 C 5.6782969326974255,29.0763699184694 6.2265265070644835,27.03646524467657 6.855345245958828,25.057007192372104" fill="none" stroke="#000000" stroke-width="0.7"/>
  <path d="M 6.855345245958828,25.057007192372104 C 6.862415472781298,25.034750830483198 6.8694958876849395,25.012502110255422 6.876586437225342,24.99026107788086 C 7.514303684234619,22.989925384521484 8.234000205993652,21.051780700683594 8.996794700622559,19.209434509277344 C 9.124766751708458,18.900349492119737 9.265468160545273,18.552794212830012 9.423808256980553,18.189870095363712" fill="none" stroke="#000000" stroke-width="0.7"/>
  <path d="M 9.423808256980553,18.189870095363712 C 10.03988766079312,16.777782576462716 10.922995701278454,15.133029226692727 12.362306594848633,14.616353034973145 C 12.888863151281782,14.42733253983278 14.345135388729615,14.470259738828252 15.406903848967742,14.52569677837082" fill="none" stroke="#000000" stroke-width="0.7"/>
  <path d="M 15.406903848967742,14.52569677837082 C 15.960868508016631,14.554620373164727 16.407445194516306,14.586949274804537 16.558565139770508,14.59151840209961 C 18.488113403320312,14.649858474731445 20.46289825439453,14.986143112182617 22.25560760498047,15.691967010498047 C 22.303488082240282,15.710818488601856 22.35123867458663,15.729933574764996 22.39885505120405,15.749314014039696" fill="none" stroke="#000000" stroke-width="0.7"/>
  <path d="M 22.39885505120405,15.749314014039696 C 24.13405784572469,16.455562468404324 25.691026374175006,17.51419150786068 26.860179901123047,19.0096492767334 L 26.860179901123047,19.0096492767334 C 26.58238070676267,19.793833958572264 26.211698156364243,20.28361199323322 25.775555747997018,20.614264369223825" fill="none" stroke="#000000" stroke-width="0.7"/>
  <path d="M 25.775555747997018,20.614264369223825 C 24.60203511290522,21.503944847028666 22.954600099631612,21.24159200362641 21.36745834350586,22.46246910095215 C 21.019943237304688,22.729787826538086 21.088659286499023,23.293867111206055 20.943580627441406,23.707603454589844 C 20.818989282071442,24.06291678927513 20.69145917297199,24.4201234954014 20.563136409531978,24.77844287235461" fill="none" stroke="#000000" stroke-width="0.7"/>
  <path d="M 20.563136409531978,24.77844287235461 C 20.225617961900788,25.72090543023088 19.8826158423363,26.67106557010787 19.57318115234375,27.614717483520508 C 19.114156303875546,29.014559382227713 18.70734052366484,30.43471781039942 18.3573656527135,31.86962557949704" fill="none" stroke="#000000" stroke-width="0.7"/>
  <path d="M 18.3573656527135,31.86962557949704 C 18.213837156762906,32.45809684135241 18.07986878557771,33.04904880841282 17.955780029296875,33.64209747314453 C 17.57251934397449,35.47378659537042 17.28350482574301,37.32548015412728 17.098149797985187,39.185861147621715" fill="none" stroke="#000000" stroke-width="0.7"/>
  <path d="M 17.098149797985187,39.185861147621715 C 17.077159556380607,39.3965370974591 17.05749865211392,39.607324455632714 17.039180755615234,39.818206787109375 C 16.859107971191406,41.891292572021484 16.808820724487305,43.97355651855469 16.901308059692383,46.04938507080078 C 16.906729190791694,46.17105820000671 16.910034735605233,46.310843238331394 16.912443861095188,46.4652940267957" fill="none" stroke="#000000" stroke-width="0.7"/>
  <path d="M 16.912443861095188,46.4652940267957 C 16.938533310227175,48.137907597918996 16.85949384421665,51.53046892268983 18.223712921142578,52.26622772216797 C 18.71950991518518,52.53362366659232 19.16083736470193,52.45210615965409 19.560515937885263,52.21603694658057" fill="none" stroke="#000000" stroke-width="0.7"/>
  <path d="M 19.560515937885263,52.21603694658057 C 20.167494069047613,51.85752673514974 20.678415504184976,51.14256690098394 21.138185501098633,50.751922607421875 C 22.410491943359375,49.670902252197266 23.582752227783203,48.57655334472656 24.549795150756836,47.20785140991211 C 24.618189808525727,47.111049318189195 24.686059701498714,47.014150268998556 24.75340958724125,46.917153558475405" fill="none" stroke="#000000" stroke-width="0.7"/>
  <path d="M 24.75340958724125,46.917153558475405 C 25.987386859813626,45.13999039063569 27.046802024460515,43.33004312467632 27.96091651916504,41.48298263549805 C 28.12547196740863,41.15048242122595 28.285318843399033,40.816779748687175 28.440627873465495,40.481849363742555" fill="none" stroke="#000000" stroke-width="0.7"/>
  <path d="M 28.440627873465495,40.481849363742555 C 29.195159268058706,38.85467101914945 29.842585363067048,37.19851537844789 30.402482986450195,35.5104866027832 C 30.618591211813346,34.85894260897854 30.82165945058175,34.20265015738711 31.012813181978046,33.541443103454945" fill="none" stroke="#000000" stroke-width="0.7"/>
  <path d="M 31.012813181978046,33.541443103454945 C 31.41884156800245,32.1369775407114 31.77111440227919,30.710338408201533 32.08041763305664,29.259933471679688 C 32.2872080451424,28.290242413988608 32.47479189714925,27.30992772529069 32.646393489509386,26.318513051832802" fill="none" stroke="#000000" stroke-width="0.7"/>
  <path d="M 32.646393489509386,26.318513051832802 C 32.85230114033776,25.12889782973123 33.035197524646556,23.92330084326585 33.200653076171875,22.700899124145508 L 33.200653076171875,22.700899124145508 C 34.39660182649533,22.152168684724675 35.6337576604544,21.912488980704108 36.8871863258151,21.870497751327626" fill="none" stroke="#000000" stroke-width="0.7"/>
  <path d="M 36.8871863258151,21.870497751327626 C 37.21668563247208,21.85945916465126 37.5473094739034,21.862081849251958 37.878604888916016,21.8763427734375 C 39.47016143798828,21.944852828979492 41.07721710205078,22.281959533691406 42.64955139160156,22.663368225097656 C 43.02924989146308,22.755473097010068 43.58324703922406,22.872133010627557 44.15801487291975,23.017730485230878" fill="none" stroke="#000000" stroke-width="0.7"/>
  <path d="M 44.15801487291975,23.017730485230878 C 44.98054663977754,23.22609034988347 45.84561584060245,23.493713042613756 46.30326843261719,23.83344268798828 C 46.763633728027344,24.17518424987793 46.97587966918945,24.762144088745117 47.31218338012695,25.22649383544922 L 47.31218338012695,25.22649383544922 C 46.51111336735103,26.255787598330308 45.948158342879495,27.260816881309033 45.54149834466155,28.279679090413005" fill="none" stroke="#000000" stroke-width="0.7"/>
  <path d="M 45.54149834466155,28.279679090413005 C 45.28592995137865,28.919990355102037 45.0920915946603,29.565765050432304 44.939674377441406,30.226459503173828 C 44.57099474918117,31.824603004773902 44.4446702792265,33.510043694702276 44.27325883175229,35.41661133460734" fill="none" stroke="#000000" stroke-width="0.7"/>
  <path d="M 44.27325883175229,35.41661133460734 C 44.2610480045269,35.55242938169484 44.24860837433515,35.68936958211535 44.235836029052734,35.82748031616211 C 44.052940368652344,37.80521774291992 43.94188690185547,39.76020431518555 43.943599700927734,41.69945526123047 C 43.94394575049095,42.0912565843979 43.94889450979788,42.482415592950744 43.95878344795199,42.87299017289163" fill="none" stroke="#000000" stroke-width="0.7"/>
  <path d="M 43.95878344795199,42.87299017289163 C 43.99784057387878,44.41559467853485 44.11396034533817,45.94908258812857 44.32793426513672,47.477020263671875 C 44.45579664464107,48.390055586449705 44.618600650952146,49.30110990650633 44.82078269432375,50.21094337318887" fill="none" stroke="#000000" stroke-width="0.7"/>
  <path d="M 44.82078269432375,50.21094337318887 C 45.042612637725796,51.209193776903085 45.3118459532677,52.20597451450035 45.634342193603516,53.20228958129883 L 45.634342193603516,53.20228958129883 C 47.34434063540622,53.87141661114841 48.323632576605,52.98672788883145 49.20866997855427,51.77983071474902" fill="none" stroke="#000000" stroke-width="0.7"/>
  <path d="M 49.20866997855427,51.77983071474902 C 49.58398399349218,51.26802700676508 49.94234805185246,50.6982799964229 50.332298278808594,50.164512634277344 C 51.31600570678711,48.81800842285156 52.29505920410156,47.45732498168945 53.07773971557617,45.980857849121094 C 53.16634455615812,45.81371145266762 53.25443675502671,45.64603140438899 53.34200162276585,45.47783256443755" fill="none" stroke="#000000" stroke-width="0.7"/>
  <path d="M 53.34200162276585,45.47783256443755 C 54.334546197510875,43.571304862373864 55.25933853245138,41.598122081817706 56.09498596191406,39.579925537109375 C 56.21259852443688,39.29587480632115 56.328445205958396,39.01093245685723 56.44246634659085,38.72515882533948" fill="none" stroke="#000000" stroke-width="0.7"/>
  <path d="M 56.44246634659085,38.72515882533948 C 57.21004335869847,36.80136408865442 57.89489004744121,34.8398971017704 58.47880554199219,32.85916519165039 C 58.594373597130684,32.46714042652686 58.70598809004207,32.07436112934228 58.813507930964036,31.68097001000977" fill="none" stroke="#000000" stroke-width="0.7"/>
  <path d="M 58.813507930964036,31.68097001000977 C 59.32993770334325,29.791468644765715 59.75190434975309,27.88785261659545 60.06377410888672,25.98593521118164 C 60.15344477574312,25.439084503324448 60.23573968315369,24.899961366846263 60.30410441727115,24.367348900307395" fill="none" stroke="#000000" stroke-width="0.7"/>
  <path d="M 60.30410441727115,24.367348900307395 C 60.459444552345204,23.157132937906063 60.54286304146038,21.98053163976465 60.47746658325195,20.82326889038086 C 60.40789650088369,19.592197695710695 60.169926225919994,18.383010429014178 59.67099208036244,17.178520053652942" fill="none" stroke="#000000" stroke-width="0.7"/>
  <path d="M 59.67099208036244,17.178520053652942 C 59.494490097431154,16.752421856995486 59.285329849450044,16.326911451750647 59.03941345214844,15.901227951049805 L 59.03941345214844,15.901227951049805 C 59.206642150878906,14.555131912231445 60.41747283935547,13.961174011230469 61.80937194824219,13.870221138000488 C 62.60637496246861,13.818140873177175 63.46274525335632,13.930981904834239 64.21655084029196,14.161971108385828" fill="none" stroke="#000000" stroke-width="0.7"/>
  <path d="M 64.21655084029196,14.161971108385828 C 64.77920366819423,14.334385230602052 65.28471386427411,14.572624117351424 65.66574096679688,14.857236862182617 C 66.25250244140625,15.295527458190918 66.71147155761719,15.882912635803223 67.23433685302734,16.395750045776367 L 67.23433685302734,16.395750045776367 C 67.37007794405508,17.570152803622065 67.46041619022087,18.738662075887706 67.50680734966359,19.90088540307503" fill="none" stroke="#000000" stroke-width="0.7"/>
  <path d="M 67.50680734966359,19.90088540307503 C 67.5454238789116,20.868333331650085 67.5535890888756,21.831425674113415 67.53214263916016,22.789936065673828 C 67.49823355164526,24.305195336877375 67.39032240856156,25.809003923147955 67.21171795727908,27.30046541107556" fill="none" stroke="#000000" stroke-width="0.7"/>
  <path d="M 67.21171795727908,27.30046541107556 C 67.14161614000638,27.88586045551711 67.06062371033266,28.469353375616816 66.96894073486328,29.05088996887207 C 66.67555227431748,30.911825709370376 66.27269043151726,32.75272981337264 65.76691678462598,34.571830318857785" fill="none" stroke="#000000" stroke-width="0.7"/>
  <path d="M 65.76691678462598,34.571830318857785 C 65.71195329033596,34.76951582671444 65.65577444575841,34.966943842148716 65.598388671875,35.16411209106445 C 65.012939453125,37.175621032714844 64.3018798828125,39.160091400146484 63.47414016723633,41.11510467529297 C 63.41094514725898,41.264363760041704 63.34707006186561,41.41345114411552 63.2825188902114,41.5623657546364" fill="none" stroke="#000000" stroke-width="0.7"/>
  <path d="M 63.2825188902114,41.5623657546364 C 62.50157112474777,43.36395245478393 61.621668340691784,45.14025124252504 60.64985656738281,46.88936233520508 C 60.4090687034196,47.32274311565334 60.159693802977486,47.751352118761176 59.90413165339747,48.176398532930406" fill="none" stroke="#000000" stroke-width="0.7"/>
  <path d="M 59.90413165339747,48.176398532930406 C 59.15284010883238,49.42593324508492 58.34807716597381,50.64467937771948 57.550811767578125,51.86335754394531 C 57.517606939060286,51.91411444748153 56.60601559141245,53.38853417555529 55.84496337124641,54.442102907998645" fill="none" stroke="#000000" stroke-width="0.7"/>
  <path d="M 55.84496337124641,54.442102907998645 C 55.51616848265365,54.89727274369396 55.21547128265671,55.273891969868195 55.025840759277344,55.42322540283203 C 53.4681510925293,56.64990234375 51.377140045166016,57.389522552490234 49.537532806396484,58.041534423828125 L 49.537532806396484,58.041534423828125" fill="none" stroke="#000000" stroke-width="0.7"/>
</svg>
